<svg id="GRAPHIC" xmlns="http://www.w3.org/2000/svg" width="12.3mm" height="12.3mm" viewBox="0 0 34.87 34.87"><path d="M158.74,187.09a17,17,0,1,1-17-17A17,17,0,0,1,158.74,187.09Z" transform="translate(-124.3 -169.65)" fill="#98c0d6"/><path d="M141.73,204.52a17.44,17.44,0,1,1,17.44-17.43A17.45,17.45,0,0,1,141.73,204.52Zm0-34a16.59,16.59,0,1,0,16.59,16.59A16.6,16.6,0,0,0,141.73,170.5Z" transform="translate(-124.3 -169.65)" fill="#005b81"/><path d="M141.73,192a4.9,4.9,0,1,1,4.9-4.9A4.9,4.9,0,0,1,141.73,192Zm0-9.57a4.67,4.67,0,1,0,4.67,4.67A4.68,4.68,0,0,0,141.73,182.42Z" transform="translate(-124.3 -169.65)" fill="#005b81"/><path d="M141.73,189.81a2.72,2.72,0,1,1,2.72-2.72A2.72,2.72,0,0,1,141.73,189.81Zm0-5.21a2.49,2.49,0,1,0,2.49,2.49A2.5,2.5,0,0,0,141.73,184.6Z" transform="translate(-124.3 -169.65)" fill="#005b81"/><path d="M132.16,181.72a1.52,1.52,0,1,1,1.52-1.52A1.53,1.53,0,0,1,132.16,181.72Zm0-2.81a1.29,1.29,0,1,0,1.3,1.29A1.29,1.29,0,0,0,132.16,178.91Z" transform="translate(-124.3 -169.65)" fill="#005b81"/><path d="M129.24,189.16a2.09,2.09,0,1,1,2.08-2.08A2.08,2.08,0,0,1,129.24,189.16Zm0-3.94a1.86,1.86,0,1,0,1.85,1.86A1.86,1.86,0,0,0,129.24,185.22Z" transform="translate(-124.3 -169.65)" fill="#005b81"/><path d="M132.16,195.47a1.52,1.52,0,1,1,1.52-1.52A1.53,1.53,0,0,1,132.16,195.47Zm0-2.81a1.3,1.3,0,1,0,1.3,1.29A1.29,1.29,0,0,0,132.16,192.66Z" transform="translate(-124.3 -169.65)" fill="#005b81"/><path d="M138.13,199.82h0a1.52,1.52,0,1,1,1.22-2.42,1.52,1.52,0,0,1-.32,2.12A1.46,1.46,0,0,1,138.13,199.82Zm0-2.81a1.25,1.25,0,0,0-.77.25,1.3,1.3,0,0,0-.27,1.81,1.28,1.28,0,0,0,1,.52,1.27,1.27,0,0,0,.77-.25,1.29,1.29,0,0,0,.51-.85,1.27,1.27,0,0,0-.24-1A1.3,1.3,0,0,0,138.13,197Z" transform="translate(-124.3 -169.65)" fill="#005b81"/><path d="M151.3,181.72a1.52,1.52,0,1,1,1.52-1.52A1.53,1.53,0,0,1,151.3,181.72Zm0-2.81a1.29,1.29,0,1,0,1.3,1.29A1.29,1.29,0,0,0,151.3,178.91Z" transform="translate(-124.3 -169.65)" fill="#005b81"/><path d="M154.23,189.16a2.09,2.09,0,1,1,2.08-2.08A2.09,2.09,0,0,1,154.23,189.16Zm0-3.94a1.86,1.86,0,1,0,1.85,1.86A1.86,1.86,0,0,0,154.23,185.22Z" transform="translate(-124.3 -169.65)" fill="#005b81"/><path d="M151.3,195.47a1.52,1.52,0,1,1,1.52-1.52A1.53,1.53,0,0,1,151.3,195.47Zm0-2.81a1.3,1.3,0,1,0,1.3,1.29A1.29,1.29,0,0,0,151.3,192.66Z" transform="translate(-124.3 -169.65)" fill="#005b81"/><path d="M145.33,199.82a1.52,1.52,0,0,1-1.22-2.42,1.54,1.54,0,0,1,1.23-.62,1.48,1.48,0,0,1,.9.3,1.5,1.5,0,0,1,.6,1,1.52,1.52,0,0,1-.28,1.13A1.56,1.56,0,0,1,145.33,199.82Zm0-2.81a1.3,1.3,0,0,0-1.05.52,1.27,1.27,0,0,0-.23,1,1.32,1.32,0,0,0,.5.85,1.29,1.29,0,0,0,.77.25,1.27,1.27,0,0,0,1-.52,1.23,1.23,0,0,0,.24-1,1.29,1.29,0,0,0-.51-.85A1.22,1.22,0,0,0,145.34,197Z" transform="translate(-124.3 -169.65)" fill="#005b81"/><path d="M139.68,202.54,134.52,201l1.7-5.6.45.14.34-1.14c-.28-.18-.51-.35-.72-.51l-.9.67.2.27-.1.07-4.6,3.42L127.67,194l.09-.06,4.61-3.42.28.37.95-.7a8.82,8.82,0,0,1-.45-1.67h-.71a3.51,3.51,0,1,1,0-2.83h.72a8.87,8.87,0,0,1,.44-1.62l-.95-.71-.28.38-4.7-3.49,3.22-4.33.09.07,4.61,3.42-.2.27.9.67a8.76,8.76,0,0,1,3-1.57,14.73,14.73,0,0,0-2.26-7.54l.2-.12a14.54,14.54,0,0,1,2.28,7.75v.05l0,0,0,0a8.42,8.42,0,0,0-3,1.6l-.07.06-1.23-.92.2-.27-4.34-3.21-2.94,4,4.33,3.21.28-.38,1.27.95,0,.08a8.74,8.74,0,0,0-.47,1.75l0,.1h-1.06l0-.07a3.28,3.28,0,1,0,0,2.51l0-.07h1.05l0,.09a8.66,8.66,0,0,0,.48,1.81l0,.08-1.27.94-.28-.38L128,194l2.94,4,4.34-3.22-.2-.27,1.23-.91.07.06a8.94,8.94,0,0,0,.84.6l.07.05-.46,1.51-.44-.13-1.58,5.16,4.73,1.44,1.57-5.16-.32-.1.44-1.46h1l.45,1.46-.33.1,1.57,5.16,4.74-1.44-1.58-5.16-.45.13-.46-1.51.07-.05a8.47,8.47,0,0,0,.85-.6l.07-.06,1.23.91-.2.27,4.34,3.22,2.94-4-4.34-3.22-.28.38-1.27-.94,0-.08a8.12,8.12,0,0,0,.49-1.81v-.09h1l0,.07a3.29,3.29,0,1,0,0-2.51l0,.07h-1l0-.1a8.37,8.37,0,0,0-.48-1.75l0-.08,1.27-.95.28.38,4.34-3.21-2.94-4-4.34,3.21.2.27-1.23.92-.07-.06a8.42,8.42,0,0,0-3-1.6l-.08,0v-.08a14.66,14.66,0,0,1,2.29-7.76l.2.12a14.38,14.38,0,0,0-2.26,7.54,8.62,8.62,0,0,1,3,1.57l.91-.67-.2-.27,4.7-3.49,3.21,4.33-4.7,3.49-.28-.38-.95.71a8.24,8.24,0,0,1,.45,1.62H151a3.51,3.51,0,1,1,0,2.83h-.7a8.82,8.82,0,0,1-.45,1.67l.94.7.28-.37,4.7,3.48-3.21,4.34-4.7-3.49.2-.27-.91-.67c-.2.16-.43.32-.72.52l.34,1.13.45-.14L149,201l-5.17,1.57-1.7-5.6.32-.09-.33-1.08h-.68l-.33,1.08.33.09Z" transform="translate(-124.3 -169.65)" fill="#005b81"/><path d="M146.75,174.84a1.28,1.28,0,1,0,1.28-1.27A1.28,1.28,0,0,0,146.75,174.84Z" transform="translate(-124.3 -169.65)" fill="#eaf6f9"/><path d="M136.71,174.84a1.27,1.27,0,1,1-1.27-1.27A1.28,1.28,0,0,1,136.71,174.84Z" transform="translate(-124.3 -169.65)" fill="#eaf6f9"/><path d="M133.57,187.12a1.28,1.28,0,1,0,1.27-1.27A1.27,1.27,0,0,0,133.57,187.12Z" transform="translate(-124.3 -169.65)" fill="#eaf6f9"/></svg>