<svg id="GRAPHIC" xmlns="http://www.w3.org/2000/svg" width="11.36mm" height="11.55mm" viewBox="0 0 32.19 32.74"><path d="M744.23,174.58a1.58,1.58,0,0,1,.46-1.08,1.55,1.55,0,0,1,1.08-.46h25a1.58,1.58,0,0,1,1.08.46,1.63,1.63,0,0,1,.46,1.08v25a1.61,1.61,0,0,1-.46,1.08,1.58,1.58,0,0,1-1.08.46h-25a1.55,1.55,0,0,1-1.08-.46,1.56,1.56,0,0,1-.46-1.08Z" transform="translate(-743.91 -172.73)" fill="#a6c7d5"/><path d="M745.77,201.45a1.92,1.92,0,0,1-1.31-.55,1.88,1.88,0,0,1-.55-1.31v-25a1.86,1.86,0,0,1,.55-1.3,1.83,1.83,0,0,1,1.3-.55h25a1.88,1.88,0,0,1,1.85,1.85v25a1.84,1.84,0,0,1-.55,1.31,1.9,1.9,0,0,1-1.3.55Zm-1.22-26.87v25a1.22,1.22,0,0,0,.36.86,1.26,1.26,0,0,0,.86.36h25a1.24,1.24,0,0,0,.85-.36,1.27,1.27,0,0,0,.37-.86v-25a1.27,1.27,0,0,0-1.23-1.22h-25a1.27,1.27,0,0,0-.86.37A1.2,1.2,0,0,0,744.55,174.58Z" transform="translate(-743.91 -172.73)" fill="#005f87"/><path d="M768.84,193.36a.29.29,0,0,0,.29-.29v-15.9a.29.29,0,0,0-.29-.3H747.68a.29.29,0,0,0-.29.3v15.9a.29.29,0,0,0,.29.29Z" transform="translate(-743.91 -172.73)" fill="#e5f5f9"/><rect x="1.95" y="2.22" width="4.09" height="1.11" fill="#005f87"/><path d="M745.77,200.48a1,1,0,0,1-.9-.88v-25h0a1,1,0,0,1,.88-.88h25a1,1,0,0,1,.9.88v25a1,1,0,0,1-.89.89Zm-.62-25.89v25a.68.68,0,0,0,.63.62h25a.69.69,0,0,0,.62-.63v-25a.69.69,0,0,0-.63-.63h-25A.69.69,0,0,0,745.15,174.59Z" transform="translate(-743.91 -172.73)" fill="#005f87"/><polygon points="8.74 22.33 8.74 26.69 4.39 26.69 4.39 27.01 9.06 27.01 9.06 22.33 8.74 22.33" fill="#005f87"/><polygon points="13.84 22.33 13.84 26.69 9.49 26.69 9.49 27.01 14.16 27.01 14.16 22.33 13.84 22.33" fill="#005f87"/><polygon points="18.94 22.33 18.94 26.69 14.6 26.69 14.6 27.01 19.27 27.01 19.27 22.33 18.94 22.33" fill="#005f87"/><polygon points="24.05 22.33 24.05 26.69 19.71 26.69 19.71 27.01 24.37 27.01 24.37 22.33 24.05 22.33" fill="#005f87"/><path d="M747.71,178.6a1.54,1.54,0,0,1,.45-1.08,1.59,1.59,0,0,1,1.09-.46h25a1.59,1.59,0,0,1,1.09.46,1.54,1.54,0,0,1,.45,1.08v25a1.54,1.54,0,0,1-1.54,1.53h-25a1.54,1.54,0,0,1-1.54-1.53Z" transform="translate(-743.91 -172.73)" fill="#a6c7d5"/><path d="M749.25,205.46a1.88,1.88,0,0,1-1.86-1.85v-25a1.88,1.88,0,0,1,1.85-1.85h25a1.88,1.88,0,0,1,1.86,1.85v25a1.88,1.88,0,0,1-1.85,1.85ZM748,178.6v25a1.23,1.23,0,0,0,1.22,1.21h25a1.23,1.23,0,0,0,1.22-1.22v-25a1.23,1.23,0,0,0-1.22-1.22h-25A1.23,1.23,0,0,0,748,178.6Z" transform="translate(-743.91 -172.73)" fill="#005f87"/><path d="M772.32,197.38a.29.29,0,0,0,.29-.29V181.18a.29.29,0,0,0-.29-.29H751.16a.29.29,0,0,0-.29.29v15.91a.29.29,0,0,0,.29.29Z" transform="translate(-743.91 -172.73)" fill="#e5f5f9"/><rect x="5.42" y="6.24" width="4.09" height="1.11" fill="#005f87"/><path d="M749.24,204.5a1,1,0,0,1-.89-.89v-25h0a1,1,0,0,1,.88-.89h25a1,1,0,0,1,.89.89v25a1,1,0,0,1-.88.9Zm-.62-25.89v25a.69.69,0,0,0,.64.62h25a.69.69,0,0,0,.62-.63v-25a.69.69,0,0,0-.64-.62h-25A.69.69,0,0,0,748.62,178.61Z" transform="translate(-743.91 -172.73)" fill="#005f87"/><polygon points="12.21 26.34 12.21 30.71 7.87 30.71 7.87 31.03 12.54 31.03 12.54 26.34 12.21 26.34" fill="#005f87"/><polygon points="17.31 26.34 17.31 30.71 12.97 30.71 12.97 31.03 17.64 31.03 17.64 26.34 17.31 26.34" fill="#005f87"/><polygon points="22.42 26.34 22.42 30.71 18.08 30.71 18.08 31.03 22.74 31.03 22.74 26.34 22.42 26.34" fill="#005f87"/><polygon points="27.53 26.34 27.53 30.71 23.18 30.71 23.18 31.03 27.85 31.03 27.85 26.34 27.53 26.34" fill="#005f87"/></svg>