<svg id="GRAPHIC" xmlns="http://www.w3.org/2000/svg" width="12.39mm" height="12.39mm" viewBox="0 0 35.13 35.13"><rect x="0.22" y="0.22" width="34.7" height="34.7" fill="#a6c7d5"/><path d="M775.83,204.65H740.7V169.52h35.13Zm-34.69-.43H775.4V170H741.14Z" transform="translate(-740.7 -169.52)" fill="#005f87"/><path d="M751.93,186.73l-1,0a7.37,7.37,0,0,1,7-7l0,1a6.35,6.35,0,0,0-6.06,6.07Z" transform="translate(-740.7 -169.52)" fill="#005f87"/><path d="M748.45,186.72l-1,0A10.84,10.84,0,0,1,758,176.17l0,1a9.81,9.81,0,0,0-9.54,9.54Z" transform="translate(-740.7 -169.52)" fill="#005f87"/><path d="M744.85,186.71l-1,0A14.42,14.42,0,0,1,758,172.57l0,1a13.43,13.43,0,0,0-13.13,13.13Z" transform="translate(-740.7 -169.52)" fill="#005f87"/><path d="M758.59,194.35l-.05-1a6.34,6.34,0,0,0,4.21-1.85,6.27,6.27,0,0,0,1.85-4.22l1,0a7.37,7.37,0,0,1-7,7Z" transform="translate(-740.7 -169.52)" fill="#005f87"/><path d="M758.58,197.83l0-1a9.83,9.83,0,0,0,9.54-9.54l1,0a10.84,10.84,0,0,1-10.52,10.52Z" transform="translate(-740.7 -169.52)" fill="#005f87"/><path d="M758.58,201.43l0-1a13.43,13.43,0,0,0,13.14-13.13l1,0a14.44,14.44,0,0,1-14.12,14.12Z" transform="translate(-740.7 -169.52)" fill="#005f87"/></svg>