<svg id="GRAPHIC" xmlns="http://www.w3.org/2000/svg" width="10.13mm" height="10.13mm" viewBox="0 0 28.71 28.72"><path d="M744.23,174.58a1.58,1.58,0,0,1,.46-1.08,1.55,1.55,0,0,1,1.08-.46h25a1.58,1.58,0,0,1,1.08.46,1.63,1.63,0,0,1,.46,1.08v25a1.61,1.61,0,0,1-.46,1.08,1.58,1.58,0,0,1-1.08.46h-25a1.55,1.55,0,0,1-1.08-.46,1.56,1.56,0,0,1-.46-1.08Z" transform="translate(-743.91 -172.73)" fill="#a6c7d5"/><path d="M745.77,201.45a1.92,1.92,0,0,1-1.31-.55,1.88,1.88,0,0,1-.55-1.31v-25a1.86,1.86,0,0,1,.55-1.3,1.83,1.83,0,0,1,1.3-.55h25a1.88,1.88,0,0,1,1.85,1.85v25a1.84,1.84,0,0,1-.55,1.31,1.9,1.9,0,0,1-1.3.55Zm-1.22-26.87v25a1.22,1.22,0,0,0,.36.86,1.26,1.26,0,0,0,.86.36h25a1.24,1.24,0,0,0,.85-.36,1.27,1.27,0,0,0,.37-.86v-25a1.27,1.27,0,0,0-1.23-1.22h-25a1.27,1.27,0,0,0-.86.37A1.2,1.2,0,0,0,744.55,174.58Z" transform="translate(-743.91 -172.73)" fill="#005f87"/><path d="M768.84,193.36a.29.29,0,0,0,.29-.29v-15.9a.29.29,0,0,0-.29-.3H747.68a.29.29,0,0,0-.29.3v15.9a.29.29,0,0,0,.29.29Z" transform="translate(-743.91 -172.73)" fill="#e5f5f9"/><rect x="1.95" y="2.22" width="4.09" height="1.11" fill="#005f87"/><path d="M745.77,200.48a1,1,0,0,1-.9-.88v-25h0a1,1,0,0,1,.88-.88h25a1,1,0,0,1,.9.88v25a1,1,0,0,1-.89.89Zm-.62-25.89v25a.68.68,0,0,0,.63.62h25a.69.69,0,0,0,.62-.63v-25a.69.69,0,0,0-.63-.63h-25A.69.69,0,0,0,745.15,174.59Z" transform="translate(-743.91 -172.73)" fill="#005f87"/><polygon points="8.74 22.33 8.74 26.69 4.39 26.69 4.39 27.01 9.06 27.01 9.06 22.33 8.74 22.33" fill="#005f87"/><polygon points="13.84 22.33 13.84 26.69 9.49 26.69 9.49 27.01 14.16 27.01 14.16 22.33 13.84 22.33" fill="#005f87"/><polygon points="18.94 22.33 18.94 26.69 14.6 26.69 14.6 27.01 19.27 27.01 19.27 22.33 18.94 22.33" fill="#005f87"/><polygon points="24.05 22.33 24.05 26.69 19.71 26.69 19.71 27.01 24.37 27.01 24.37 22.33 24.05 22.33" fill="#005f87"/></svg>