<svg id="GRAPHIC" xmlns="http://www.w3.org/2000/svg" width="17.99mm" height="15.19mm" viewBox="0 0 51 43.04"><rect x="0.22" y="0.22" width="20.23" height="42.6" fill="#98c0d6"/><path d="M753.43,208.61H732.77v-43h20.66Zm-20.23-.44H753V166H733.2Z" transform="translate(-732.77 -165.56)" fill="#005b81"/><path d="M733,207.16v-.43a31.23,31.23,0,0,0,7.22-.87h13v.43H740.28A31.35,31.35,0,0,1,733,207.16Z" transform="translate(-732.77 -165.56)" fill="#005b81"/><rect x="15.88" y="0.22" width="0.12" height="3.13" fill="#005b81"/><rect x="12.38" y="0.22" width="0.12" height="3.13" fill="#005b81"/><path d="M750.12,169h-14v-3.25h14Zm-13.93-.12H750v-3H736.19Z" transform="translate(-732.77 -165.56)" fill="#005b81"/><rect x="6.25" y="1.06" width="0.64" height="0.64" fill="#eaf6f9"/><rect x="7.41" y="1.06" width="0.64" height="0.64" fill="#eaf6f9"/><rect x="8.57" y="1.06" width="0.64" height="0.64" fill="#eaf6f9"/><path d="M742.52,167.93h-4.06V165.8h4.06Zm-3.94-.12h3.83v-1.89h-3.83Z" transform="translate(-732.77 -165.56)" fill="#005b81"/><polygon points="11.64 34.24 9.03 34.24 9.03 31.34 8.74 31.34 8.74 34.53 11.93 34.53 11.93 31.34 11.64 31.34 11.64 34.24" fill="#005b81"/><polygon points="9.03 24.68 9.03 27.57 8.74 27.57 8.74 24.39 11.93 24.39 11.93 27.57 11.64 27.57 11.64 24.68 9.03 24.68" fill="#005b81"/><polygon points="8.45 30.76 5.55 30.76 5.55 28.15 8.45 28.15 8.45 27.86 5.26 27.86 5.26 31.05 8.45 31.05 8.45 30.76" fill="#005b81"/><polygon points="6.57 35.49 6.57 35.78 3.38 35.78 3.38 32.59 3.67 32.59 3.67 35.49 6.57 35.49" fill="#005b81"/><polygon points="17 32.59 17 35.49 14.1 35.49 14.1 35.78 17.29 35.78 17.29 32.59 17 32.59" fill="#005b81"/><polygon points="12.22 31.05 12.22 30.76 15.12 30.76 15.12 28.15 12.22 28.15 12.22 27.86 15.41 27.86 15.41 31.05 12.22 31.05" fill="#005b81"/><path d="M751.66,202.49H734.54V169.93h17.12Zm-17-.11h16.88V170H734.66Z" transform="translate(-732.77 -165.56)" fill="#005b81"/><rect x="4.52" y="4.8" width="5.02" height="1.33" fill="#005b81"/><path d="M750.12,189.28h-14V169.93h14Zm-13.92-.11H750V170H736.2Z" transform="translate(-732.77 -165.56)" fill="#005b81"/><rect x="4.52" y="7.4" width="11.62" height="14.83" fill="#eaf6f9"/><rect x="20.46" y="0.22" width="20.23" height="42.6" fill="#98c0d6"/><path d="M773.68,208.61H753v-43h20.67Zm-20.24-.44h19.8V166h-19.8Z" transform="translate(-732.77 -165.56)" fill="#005b81"/><path d="M753.23,207.16v-.43a31.21,31.21,0,0,0,7.21-.87h13v.43H760.52A31.35,31.35,0,0,1,753.23,207.16Z" transform="translate(-732.77 -165.56)" fill="#005b81"/><rect x="40.7" y="0.22" width="10.09" height="42.61" fill="#98c0d6"/><path d="M783.77,208.61H773.25V165.56h10.52Zm-10.09-.44h9.66V166h-9.66Z" transform="translate(-732.77 -165.56)" fill="#005b81"/><path d="M773.46,207.16v-.43a30.12,30.12,0,0,0,7.2-.87h2.89v.43h-2.81A30.72,30.72,0,0,1,773.46,207.16Z" transform="translate(-732.77 -165.56)" fill="#005b81"/><path d="M782.27,169h-7.53v-3.25h7.53Zm-7.41-.11h7.3v-3h-7.3Z" transform="translate(-732.77 -165.56)" fill="#005b81"/></svg>